<svg id="data" xmlns="http://www.w3.org/2000/svg" width="100.79" height="100.79" viewBox="0 0 100.79 100.79">
  <g id="Group_19" data-name="Group 19" transform="translate(0 0)">
    <path id="Path_27" data-name="Path 27" d="M27.976,359.421a1.476,1.476,0,0,0,1.476-1.476v-1.969a1.476,1.476,0,0,0-2.953,0v1.969A1.476,1.476,0,0,0,27.976,359.421Z" transform="translate(-21.283 -284.715)" fill="#d92324"/>
    <path id="Path_28" data-name="Path 28" d="M27.976,409a1.476,1.476,0,0,0-1.476,1.476v1.969a1.476,1.476,0,0,0,2.953,0v-1.969A1.476,1.476,0,0,0,27.976,409Z" transform="translate(-21.283 -328.486)" fill="#d92324"/>
    <path id="Path_29" data-name="Path 29" d="M26.5,464.977v1.969a1.476,1.476,0,0,0,2.953,0v-1.969a1.476,1.476,0,1,0-2.953,0Z" transform="translate(-21.283 -372.258)" fill="#d92324"/>
    <path id="Path_30" data-name="Path 30" d="M217.352,129.976a11.115,11.115,0,0,1-18.594,8.23l1.73-.057a1.476,1.476,0,1,0-.1-2.951l-4.774.159a1.477,1.477,0,0,0-1.427,1.427l-.159,4.774a1.476,1.476,0,0,0,1.427,1.525h.05a1.477,1.477,0,0,0,1.475-1.427l.035-1.041A14.071,14.071,0,0,0,220.3,129.976a1.476,1.476,0,1,0-2.953,0Z" transform="translate(-155.835 -103.204)" fill="#d92324"/>
    <path id="Path_31" data-name="Path 31" d="M202.89,71.927a1.476,1.476,0,0,0,1.475,1.427h.05l4.774-.159a1.477,1.477,0,0,0,1.427-1.427l.159-4.774a1.476,1.476,0,0,0-2.951-.1l-.035,1.044A14.069,14.069,0,0,0,184.5,78.575a1.476,1.476,0,1,0,2.953,0,11.135,11.135,0,0,1,11.122-11.122,11.012,11.012,0,0,1,7.482,2.892l-1.741.058A1.476,1.476,0,0,0,202.89,71.927Z" transform="translate(-148.18 -51.803)" fill="#d92324"/>
    <path id="Path_32" data-name="Path 32" d="M211.476,359.421a1.476,1.476,0,0,0,1.476-1.476v-1.969a1.476,1.476,0,1,0-2.953,0v1.969A1.476,1.476,0,0,0,211.476,359.421Z" transform="translate(-168.66 -284.715)" fill="#d92324"/>
    <path id="Path_33" data-name="Path 33" d="M211.476,409A1.476,1.476,0,0,0,210,410.476v1.969a1.476,1.476,0,1,0,2.953,0v-1.969A1.476,1.476,0,0,0,211.476,409Z" transform="translate(-168.66 -328.486)" fill="#d92324"/>
    <path id="Path_34" data-name="Path 34" d="M211.476,463.5A1.476,1.476,0,0,0,210,464.977v1.969a1.476,1.476,0,0,0,2.953,0v-1.969A1.476,1.476,0,0,0,211.476,463.5Z" transform="translate(-168.66 -372.258)" fill="#d92324"/>
    <path id="Path_35" data-name="Path 35" d="M100.79,68.6a3.449,3.449,0,0,0-3.445-3.445H96.2a1.476,1.476,0,0,0,0,2.953h1.141a.493.493,0,0,1,.492.492v6.955a.493.493,0,0,1-.492.492H75.691a.493.493,0,0,1-.492-.492V68.6a.493.493,0,0,1,.492-.492H89.816a1.476,1.476,0,1,0,0-2.953H87.792c0-.033,0-.065,0-.1V55.481a1.476,1.476,0,0,0-1.476-1.476H51.871v-5.42a43.073,43.073,0,0,0,11.587-1.842,13.859,13.859,0,0,0,7.747,2.349h.185A14.279,14.279,0,0,0,85.173,35.427,13.987,13.987,0,0,0,71.188,21.09a.064.064,0,0,1-.049-.021.072.072,0,0,1-.022-.054q0-.123,0-.246A20.733,20.733,0,0,0,67.83,9.538a1.476,1.476,0,1,0-2.484,1.6,17.786,17.786,0,0,1,2.82,9.636c0,.07,0,.139,0,.21A3.026,3.026,0,0,0,71.2,24.043h0A11.034,11.034,0,0,1,82.221,35.358,11.263,11.263,0,0,1,71.352,46.138a10.945,10.945,0,0,1-6.4-1.949,2.506,2.506,0,0,0-2.184-.326,40.805,40.805,0,0,1-12.375,1.793,40.8,40.8,0,0,1-12.375-1.793,2.509,2.509,0,0,0-2.184.327,10.927,10.927,0,0,1-6.4,1.949A11.263,11.263,0,0,1,18.569,35.358,11.034,11.034,0,0,1,29.6,24.043h0a3.026,3.026,0,0,0,3.023-3.065q0-.1,0-.208A17.814,17.814,0,0,1,50.395,2.953,17.551,17.551,0,0,1,61.476,6.84a1.476,1.476,0,1,0,1.846-2.3,20.715,20.715,0,0,0-33.65,16.234c0,.082,0,.164,0,.245a.073.073,0,0,1-.022.055.08.08,0,0,1-.067.021A13.987,13.987,0,0,0,15.617,35.426,14.279,14.279,0,0,0,29.4,49.09a13.849,13.849,0,0,0,7.932-2.348,43.078,43.078,0,0,0,11.587,1.842V54H14.469a1.476,1.476,0,0,0-1.476,1.476v9.58c0,.033,0,.066,0,.1H3.445A3.449,3.449,0,0,0,0,68.6v6.955a3.423,3.423,0,0,0,.622,1.969A3.423,3.423,0,0,0,0,79.5v6.956a3.423,3.423,0,0,0,.622,1.969A3.423,3.423,0,0,0,0,90.389v6.955a3.449,3.449,0,0,0,3.445,3.445h9a1.476,1.476,0,0,0,0-2.953h-9a.493.493,0,0,1-.492-.492V90.389a.493.493,0,0,1,.492-.492H25.1a.493.493,0,0,1,.492.492v6.955a.493.493,0,0,1-.492.492H19.146a1.476,1.476,0,0,0,0,2.953H25.1a3.449,3.449,0,0,0,3.445-3.445V90.389a3.423,3.423,0,0,0-.622-1.969,3.423,3.423,0,0,0,.622-1.969V79.5a3.423,3.423,0,0,0-.622-1.969,3.423,3.423,0,0,0,.622-1.969V68.6A3.449,3.449,0,0,0,25.1,65.159H15.94c0-.033,0-.065,0-.1v-8.1H48.918v8.2H39.568A3.449,3.449,0,0,0,36.123,68.6v6.955a3.423,3.423,0,0,0,.622,1.969,3.423,3.423,0,0,0-.622,1.969v6.956a3.423,3.423,0,0,0,.622,1.969,3.423,3.423,0,0,0-.622,1.969v6.955a3.449,3.449,0,0,0,3.445,3.445H61.222a3.449,3.449,0,0,0,3.445-3.445V90.389a3.423,3.423,0,0,0-.622-1.969,3.423,3.423,0,0,0,.622-1.969V79.5a3.423,3.423,0,0,0-.622-1.969,3.423,3.423,0,0,0,.622-1.969V68.6a3.449,3.449,0,0,0-3.445-3.445H51.871v-8.2H84.844v8.1c0,.033,0,.066,0,.1H75.691A3.449,3.449,0,0,0,72.246,68.6v6.955a3.423,3.423,0,0,0,.622,1.969,3.423,3.423,0,0,0-.622,1.969v6.956a3.423,3.423,0,0,0,.622,1.969,3.423,3.423,0,0,0-.622,1.969v6.955a3.449,3.449,0,0,0,3.445,3.445H97.345a3.449,3.449,0,0,0,3.445-3.445V90.389a3.423,3.423,0,0,0-.622-1.969,3.423,3.423,0,0,0,.622-1.969V79.5a3.423,3.423,0,0,0-.622-1.969,3.423,3.423,0,0,0,.622-1.969Zm-75.2,17.848a.493.493,0,0,1-.492.492H3.445a.493.493,0,0,1-.492-.492V79.5A.493.493,0,0,1,3.445,79H25.1a.493.493,0,0,1,.492.492ZM25.1,68.112a.493.493,0,0,1,.492.492v6.955a.493.493,0,0,1-.492.492H3.445a.493.493,0,0,1-.492-.492V68.6a.493.493,0,0,1,.492-.492ZM61.714,97.345a.493.493,0,0,1-.492.492H39.568a.493.493,0,0,1-.492-.492V90.389a.493.493,0,0,1,.492-.492H61.222a.493.493,0,0,1,.492.492Zm0-10.893a.493.493,0,0,1-.492.492H39.568a.493.493,0,0,1-.492-.492V79.5A.493.493,0,0,1,39.568,79H61.222a.493.493,0,0,1,.492.492Zm-.492-18.34a.493.493,0,0,1,.492.492v6.955a.493.493,0,0,1-.492.492H39.568a.493.493,0,0,1-.492-.492V68.6a.493.493,0,0,1,.492-.492ZM97.837,97.345a.493.493,0,0,1-.492.492H75.691a.493.493,0,0,1-.492-.492V90.389a.493.493,0,0,1,.492-.492H97.345a.493.493,0,0,1,.492.492Zm0-10.893a.493.493,0,0,1-.492.492H75.691a.493.493,0,0,1-.492-.492V79.5A.493.493,0,0,1,75.691,79H97.345a.493.493,0,0,1,.492.492Z" transform="translate(0 0)" fill="#d92324"/>
    <path id="Path_36" data-name="Path 36" d="M393.5,355.976v1.969a1.476,1.476,0,1,0,2.953,0v-1.969a1.476,1.476,0,1,0-2.953,0Z" transform="translate(-316.038 -284.715)" fill="#d92324"/>
    <path id="Path_37" data-name="Path 37" d="M394.976,409a1.476,1.476,0,0,0-1.476,1.476v1.969a1.476,1.476,0,1,0,2.953,0v-1.969A1.476,1.476,0,0,0,394.976,409Z" transform="translate(-316.038 -328.486)" fill="#d92324"/>
    <path id="Path_38" data-name="Path 38" d="M394.976,463.5a1.476,1.476,0,0,0-1.476,1.476v1.969a1.476,1.476,0,0,0,2.953,0v-1.969A1.476,1.476,0,0,0,394.976,463.5Z" transform="translate(-316.038 -372.258)" fill="#d92324"/>
  </g>
</svg>
