<svg xmlns="http://www.w3.org/2000/svg" width="88.906" height="76.784" viewBox="0 0 88.906 76.784">
  <g id="inbox" transform="translate(0 -2)">
    <path id="Path_48" data-name="Path 48" d="M44.455,78.784a3.991,3.991,0,0,1-.486-.03A4.041,4.041,0,0,1,40.582,75.9L28.752,36.467,1.184,8.9A4.041,4.041,0,0,1,4.041,2H84.866a4.041,4.041,0,0,1,3.483,6.089l-40.413,68.7A4.038,4.038,0,0,1,44.455,78.784ZM13.8,10.083l21.39,21.39a4.036,4.036,0,0,1,1.014,1.7l9.465,31.545L77.8,10.083Z" transform="translate(0 0)" fill="#d92324"/>
    <path id="Path_49" data-name="Path 49" d="M0,0H59.669V8.083H0Z" transform="translate(30.397 30.762) rotate(-28.309)" fill="#d92324"/>
  </g>
</svg>
