<svg xmlns="http://www.w3.org/2000/svg" width="85.975" height="85.97" viewBox="0 0 85.975 85.97">
  <g id="responsive-design" transform="translate(0 -0.015)">
    <path id="XMLID_278_" d="M83.456.015H17.208a2.519,2.519,0,0,0-2.519,2.519V51.571H2.519A2.519,2.519,0,0,0,0,54.09V83.466a2.519,2.519,0,0,0,2.519,2.519H31.9a2.519,2.519,0,0,0,2.519-2.519V71.3h49.04a2.519,2.519,0,0,0,2.519-2.519V2.534A2.519,2.519,0,0,0,83.456.015ZM29.379,80.948H5.038V56.609h9.652v12.17A2.519,2.519,0,0,0,17.208,71.3h12.17Zm0-14.688H19.727V56.609h9.652Zm51.559,0H34.416V54.09A2.519,2.519,0,0,0,31.9,51.571H19.727V5.053H80.938Z" transform="translate(0 0)" fill="#d92324"/>
    <path id="XMLID_277_" d="M226.323,96.659a2.511,2.511,0,0,0,1.781-.738l29.318-29.316v9.6a2.519,2.519,0,0,0,5.038,0V60.525a2.282,2.282,0,0,0-2.519-2.519H244.257a2.519,2.519,0,0,0,0,5.038h9.6L224.542,92.359a2.519,2.519,0,0,0,1.781,4.3Z" transform="translate(-186.223 -48.253)" fill="#d92324"/>
  </g>
</svg>
