<svg id="timetable" xmlns="http://www.w3.org/2000/svg" width="90.053" height="90.053" viewBox="0 0 90.053 90.053">
  <path id="Path_50" data-name="Path 50" d="M84.776,51.4V8.091a2.638,2.638,0,0,0-2.638-2.638H68.771V2.638a2.638,2.638,0,0,0-5.277,0V5.452H52.941V2.638a2.638,2.638,0,0,0-5.277,0V5.452H37.112V2.638a2.638,2.638,0,1,0-5.277,0V5.452H21.282V2.638a2.638,2.638,0,1,0-5.277,0V5.452H2.638A2.638,2.638,0,0,0,0,8.091V76.862A2.638,2.638,0,0,0,2.638,79.5H46.575a23.736,23.736,0,1,0,38.2-28.1ZM16.006,10.729v2.638a2.638,2.638,0,1,0,5.277,0V10.729H31.835v2.638a2.638,2.638,0,1,0,5.277,0V10.729H47.665v2.638a2.638,2.638,0,0,0,5.277,0V10.729H63.494v2.638a2.638,2.638,0,1,0,5.277,0V10.729H79.5V21.282H5.277V10.729ZM5.277,74.223V26.559H79.5V46.575A23.717,23.717,0,0,0,46.388,53.4a2.623,2.623,0,0,0-1.186-.284H39.926a2.638,2.638,0,0,0,0,5.277h4a23.547,23.547,0,0,0-1.211,5.277H39.926a2.638,2.638,0,1,0,0,5.277h2.786a23.51,23.51,0,0,0,1.211,5.277ZM66.309,84.776A18.468,18.468,0,1,1,84.776,66.309,18.489,18.489,0,0,1,66.309,84.776Zm0,0" fill="#d92324"/>
  <path id="Path_51" data-name="Path 51" d="M375.191,312.553h-7.915v-7.915a2.638,2.638,0,0,0-5.277,0v10.553a2.638,2.638,0,0,0,2.638,2.638h10.553a2.638,2.638,0,0,0,0-5.277Zm0,0" transform="translate(-298.33 -248.883)" fill="#d92324"/>
  <path id="Path_52" data-name="Path 52" d="M98.915,182H93.638a2.638,2.638,0,1,0,0,5.277h5.277a2.638,2.638,0,0,0,0-5.277Zm0,0" transform="translate(-74.994 -149.989)" fill="#d92324"/>
  <path id="Path_53" data-name="Path 53" d="M98.915,242H93.638a2.638,2.638,0,1,0,0,5.277h5.277a2.638,2.638,0,0,0,0-5.277Zm0,0" transform="translate(-74.994 -199.436)" fill="#d92324"/>
  <path id="Path_54" data-name="Path 54" d="M98.915,302H93.638a2.638,2.638,0,1,0,0,5.277h5.277a2.638,2.638,0,0,0,0-5.277Zm0,0" transform="translate(-74.994 -248.883)" fill="#d92324"/>
  <path id="Path_55" data-name="Path 55" d="M214.638,187.277h5.277a2.638,2.638,0,0,0,0-5.277h-5.277a2.638,2.638,0,0,0,0,5.277Zm0,0" transform="translate(-174.712 -149.989)" fill="#d92324"/>
  <path id="Path_56" data-name="Path 56" d="M214.638,247.277h5.277a2.638,2.638,0,0,0,0-5.277h-5.277a2.638,2.638,0,0,0,0,5.277Zm0,0" transform="translate(-174.712 -199.436)" fill="#d92324"/>
  <path id="Path_57" data-name="Path 57" d="M98.915,362H93.638a2.638,2.638,0,1,0,0,5.277h5.277a2.638,2.638,0,1,0,0-5.277Zm0,0" transform="translate(-74.994 -298.33)" fill="#d92324"/>
  <path id="Path_58" data-name="Path 58" d="M334.638,187.277h5.277a2.638,2.638,0,0,0,0-5.277h-5.277a2.638,2.638,0,0,0,0,5.277Zm0,0" transform="translate(-273.606 -149.989)" fill="#d92324"/>
</svg>
