<svg xmlns="http://www.w3.org/2000/svg" width="87.653" height="102.933" viewBox="0 0 87.653 102.933">
  <g id="surface1" transform="translate(0 0.001)">
    <path id="Path_39" data-name="Path 39" d="M87.551,27.928l0-.08c-.045-.989-.075-2.035-.093-3.2A10.909,10.909,0,0,0,77.184,13.961c-11.835-.66-20.99-4.52-28.813-12.144L48.3,1.754a6.587,6.587,0,0,0-8.953,0l-.067.064C31.462,9.442,22.307,13.3,10.472,13.962A10.909,10.909,0,0,0,.2,24.65c-.017,1.156-.048,2.2-.093,3.2l0,.186C-.127,40.1-.413,55.121,4.612,68.753a51.834,51.834,0,0,0,12.436,19.37c6.251,6.1,14.439,10.943,24.335,14.394a7.524,7.524,0,0,0,1,.272,7.368,7.368,0,0,0,2.9,0,7.531,7.531,0,0,0,1-.273c9.885-3.457,18.064-8.3,24.31-14.4A51.91,51.91,0,0,0,83.022,68.739C88.066,55.066,87.781,40.018,87.551,27.928Zm-10.2,38.722c-5.3,14.368-16.117,24.236-33.071,30.165a1.552,1.552,0,0,1-.192.052,1.357,1.357,0,0,1-.531,0,1.528,1.528,0,0,1-.19-.051C26.4,90.9,15.575,81.034,10.279,66.665,5.648,54.1,5.91,40.312,6.142,28.149l0-.068c.047-1.045.079-2.14.1-3.343a4.849,4.849,0,0,1,4.57-4.746A52.994,52.994,0,0,0,28.8,16.036,47.057,47.057,0,0,0,43.454,6.188a.557.557,0,0,1,.748,0A47.075,47.075,0,0,0,58.86,16.036a53,53,0,0,0,17.988,3.956,4.848,4.848,0,0,1,4.569,4.746c.018,1.209.049,2.3.1,3.342C81.744,40.259,82,54.057,77.356,66.649Zm0,0" fill="#d92324"/>
    <path id="Path_40" data-name="Path 40" d="M116.051,128.41A25.653,25.653,0,1,0,141.7,154.063,25.682,25.682,0,0,0,116.051,128.41Zm0,45.265a19.613,19.613,0,1,1,19.612-19.613A19.634,19.634,0,0,1,116.051,173.675Zm0,0" transform="translate(-72.224 -102.595)" fill="#d92324"/>
    <path id="Path_41" data-name="Path 41" d="M173.977,212.876l-11.915,11.915-3.234-3.234a3.02,3.02,0,0,0-4.271,4.271l5.37,5.37a3.02,3.02,0,0,0,4.271,0l14.051-14.051a3.02,3.02,0,0,0-4.271-4.271Zm0,0" transform="translate(-122.778 -169.373)" fill="#d92324"/>
  </g>
</svg>
