<svg xmlns="http://www.w3.org/2000/svg" width="99.501" height="102.933" viewBox="0 0 99.501 102.933">
  <g id="medical-protection" transform="translate(-24 -16)">
    <path id="Path_42" data-name="Path 42" d="M35.022,58.889a5.762,5.762,0,0,0-4.16-1.716,6.862,6.862,0,0,0,0,13.724,5.762,5.762,0,0,0,4.16-1.716h3.083a33.91,33.91,0,0,0,6.178,15.033L40.4,88.094a6.862,6.862,0,1,0,7.572,7.572l3.879-3.879a34.336,34.336,0,0,0,13.368,5.881,45.4,45.4,0,0,0,6.506,9.978,34.453,34.453,0,0,0,18.8,11.246,1.719,1.719,0,0,0,.752,0,38.989,38.989,0,0,0,16.2-9.229A45.952,45.952,0,0,0,118.5,93.988c3.3-7.594,4.98-16.516,5-26.518a1.716,1.716,0,0,0-.882-1.5L105.5,56.458a34.292,34.292,0,0,0-6.577-13.73,6.807,6.807,0,0,0,.519-1.959l4.223-4.224a6.862,6.862,0,1,0-7.572-7.572L91.872,33.2A6.816,6.816,0,0,0,88.986,34.2a34.192,34.192,0,0,0-11.8-4.086V27.022a5.762,5.762,0,0,0,1.716-4.16,6.862,6.862,0,0,0-13.724,0,5.762,5.762,0,0,0,1.716,4.16v3.083a33.918,33.918,0,0,0-15.033,6.178L47.977,32.4A6.862,6.862,0,1,0,40.4,39.977l3.879,3.879A33.863,33.863,0,0,0,38.1,58.889Zm-.729,6.862a1.716,1.716,0,0,0-1.279.572,2.624,2.624,0,0,1-2.152,1.143,3.431,3.431,0,1,1,0-6.862,2.624,2.624,0,0,1,2.152,1.143,1.716,1.716,0,0,0,1.279.572h3.474c-.027.569-.043,1.141-.043,1.716s.016,1.146.043,1.716Zm17.156,22.3a1.716,1.716,0,0,0-1.213.5L45.089,93.7a1.716,1.716,0,0,0-.5,1.213,3.431,3.431,0,1,1-3.431-3.431,1.716,1.716,0,0,0,1.213-.5l5.147-5.147a1.716,1.716,0,0,0,.5-1.213,3.431,3.431,0,1,1,3.431,3.431Zm68.615-19.581A62.692,62.692,0,0,1,115.41,92.5a42.609,42.609,0,0,1-10.115,14.508,37.148,37.148,0,0,1-14.413,8.44,31.076,31.076,0,0,1-16.534-10.024,46.95,46.95,0,0,1-8.833-16.144,78.458,78.458,0,0,1-3.749-20.82l29.14-16.189ZM92.622,36.587a1.716,1.716,0,0,0,1.213-.5l5.147-5.147a1.716,1.716,0,0,0,.5-1.213,3.431,3.431,0,1,1,3.431,3.431,1.716,1.716,0,0,0-1.213.5L96.556,38.8a1.716,1.716,0,0,0-.5,1.213,3.431,3.431,0,1,1-3.431-3.431ZM72.036,19.431a3.435,3.435,0,0,1,3.431,3.431,2.624,2.624,0,0,1-1.143,2.152,1.715,1.715,0,0,0-.572,1.279v3.479c-.571-.029-1.142-.048-1.716-.048s-1.146.016-1.716.043V26.293a1.716,1.716,0,0,0-.572-1.279A2.624,2.624,0,0,1,68.6,22.862,3.435,3.435,0,0,1,72.036,19.431ZM42.369,37.089a1.716,1.716,0,0,0-1.213-.5,3.431,3.431,0,1,1,3.431-3.431,1.716,1.716,0,0,0,.5,1.213l5.147,5.147a1.716,1.716,0,0,0,1.213.5,3.431,3.431,0,1,1-3.431,3.431,1.716,1.716,0,0,0-.5-1.213Zm3.565,10.436a6.859,6.859,0,1,0,9.591-9.592A30.9,30.9,0,0,1,86.57,36.788a6.859,6.859,0,0,0,10.167,8.718,30.915,30.915,0,0,1,4.546,8.608l-9.544-5.3a1.716,1.716,0,0,0-1.666,0L59.193,65.967a1.716,1.716,0,0,0-.882,1.5,79.555,79.555,0,0,0,3.921,22.82q.587,1.762,1.251,3.427a30.943,30.943,0,0,1-7.954-3.576,6.859,6.859,0,1,0-9.6-9.588,30.914,30.914,0,0,1,0-33.021Z" fill="#d92324"/>
    <path id="Path_43" data-name="Path 43" d="M125.147,226.293A5.147,5.147,0,1,0,120,221.147,5.147,5.147,0,0,0,125.147,226.293Zm0-6.862a1.716,1.716,0,1,1-1.716,1.716,1.716,1.716,0,0,1,1.716-1.716Z" transform="translate(-75.413 -157.111)" fill="#d92324"/>
    <path id="Path_44" data-name="Path 44" d="M245.147,122.293A5.147,5.147,0,1,0,240,117.147,5.147,5.147,0,0,0,245.147,122.293Zm0-6.862a1.716,1.716,0,1,1-1.716,1.716A1.716,1.716,0,0,1,245.147,115.431Z" transform="translate(-169.68 -75.413)" fill="#d92324"/>
    <path id="Path_45" data-name="Path 45" d="M189.147,178.293A5.147,5.147,0,1,0,184,173.147a5.147,5.147,0,0,0,5.147,5.147Zm0-6.862a1.716,1.716,0,1,1-1.716,1.716A1.716,1.716,0,0,1,189.147,171.431Z" transform="translate(-125.689 -119.404)" fill="#d92324"/>
    <path id="Path_46" data-name="Path 46" d="M248.345,213.975l-21.985,12.214a1.716,1.716,0,0,0-.873,1.675,71.814,71.814,0,0,0,3.287,15.45,41.49,41.49,0,0,0,7.83,14.2,25.574,25.574,0,0,0,11.829,7.758,1.713,1.713,0,0,0,1.131-.038,33.828,33.828,0,0,0,11.014-7.131c7.391-7.136,11.58-17.3,12.448-30.217a1.716,1.716,0,0,0-.879-1.615l-22.135-12.3A1.715,1.715,0,0,0,248.345,213.975Zm21.175,14.763c-.962,11.522-4.77,20.568-11.326,26.9a30.556,30.556,0,0,1-9.312,6.176,22.265,22.265,0,0,1-9.707-6.567,38.111,38.111,0,0,1-7.154-13.036,67.584,67.584,0,0,1-3-13.574l20.155-11.2Z" transform="translate(-158.271 -155.351)" fill="#d92324"/>
    <path id="Path_47" data-name="Path 47" d="M288.075,287.364a1.716,1.716,0,0,0-2.426,0l-5.147,5.147a1.716,1.716,0,0,0,0,2.426l8.578,8.578a1.716,1.716,0,0,0,2.426,0l15.44-15.44a1.716,1.716,0,0,0,0-2.426L301.8,280.5a1.716,1.716,0,0,0-2.426,0l-9.08,9.08Zm12.511-3.223,2.721,2.721-13.014,13.014-6.152-6.152L286.862,291l2.218,2.218a1.716,1.716,0,0,0,2.426,0Z" transform="translate(-201.102 -207.386)" fill="#d92324"/>
  </g>
</svg>
